<?xml version="1.0" encoding="iso-8859-1"?>
<!-- Uploaded to: SVG Repo, www.svgrepo.com, Generator: SVG Repo Mixer Tools -->
<!DOCTYPE svg PUBLIC "-//W3C//DTD SVG 1.1//EN" "http://www.w3.org/Graphics/SVG/1.1/DTD/svg11.dtd">
<svg fill="currentColor" version="1.1" id="Capa_1" xmlns="http://www.w3.org/2000/svg" xmlns:xlink="http://www.w3.org/1999/xlink" 
	 width="800px" height="800px" viewBox="0 0 328.194 328.194"
	 xml:space="preserve">
<g>
	<g>
		<path d="M174.14,6.107c14.592,0,26.419,11.827,26.419,26.417S188.732,58.94,174.14,58.94c-14.587,0-26.416-11.827-26.416-26.417
			S159.553,6.107,174.14,6.107z"/>
		<path d="M26.417,227.478c14.589,0,26.416,11.827,26.416,26.413c0,14.593-11.827,26.419-26.416,26.419
			C11.827,280.31,0,268.483,0,253.891C0,239.305,11.827,227.478,26.417,227.478z"/>
		<path d="M254.272,228.498l-12.691-50.591c-0.187-0.74-0.487-1.424-0.767-2.112l-8.647-92.311l15.669,6.268l25.352,36.055
			c2.517,3.581,6.52,5.489,10.585,5.489c2.562,0,5.157-0.764,7.42-2.354c5.836-4.104,7.244-12.164,3.133-18.002l-27.559-39.19
			c-1.444-2.046-3.443-3.633-5.768-4.56l-34.031-13.616c-0.983-0.398-1.988-0.621-2.998-0.764
			c-6.363-2.887-19.18-2.423-44.377,15.604c0,0-0.077,0.381-0.181,0.938c-0.58,0.678-1.108,1.426-1.554,2.244L167.414,90.86
			l-30.066,2.444c-7.109,0.577-12.407,6.814-11.83,13.924c0.552,6.755,6.206,11.874,12.865,11.874c0.35,0,0.704-0.018,1.064-0.044
			l37.039-3.016c0.088-0.005,0.161-0.042,0.249-0.055c0.693,13.098,2.76,27.729,7.275,42.448l-60.103,51.048
			c-1.356,1.16-2.509,2.537-3.399,4.086l-49.094,85.273c-4.274,7.42-1.719,16.896,5.699,21.173c2.438,1.403,5.095,2.071,7.721,2.071
			c5.367,0,10.584-2.786,13.453-7.772l47.752-82.938l54.417-46.221c4.019,3.117,8.301,5.049,12.531,6.193l12.35,49.229
			c0.74,2.957,2.335,5.629,4.598,7.689l72.308,65.892c2.978,2.708,6.716,4.044,10.444,4.044c4.205,0,8.398-1.698,11.459-5.054
			c5.773-6.333,5.318-16.135-1.02-21.903L254.272,228.498z"/>
	</g>
</g>
</svg>